<?xml version="1.0" encoding="UTF-8"?>
<svg xmlns="http://www.w3.org/2000/svg" viewBox="10 0 80 100">
  <metadata>Chicken icon created by Dron Desain, from Noun Project. Source asset: noun_Chicken_7521664.svg.</metadata>
  <path d="m32.359 17.879c-0.32031 0-0.80859 0.64062-0.80859 1.6016 0 0.96094 0.48828 1.6016 0.80859 1.6016s0.80859-0.64062 0.80859-1.6016c0.003906-0.96094-0.47656-1.6016-0.80859-1.6016z"/>
  <path d="m80.68 38.191c0.48047-1.0312 1.2109-3.1797 0.28906-5.3516-0.75-1.7812-1.9102-2.75-2.7188-3.2383 0.73828-2.75-1.2109-4.8516-2.4609-5.6289-0.14844-0.10156-0.32812-0.14844-0.51172-0.14844-6.4414 0-13.629 9.6016-15.809 12.738-3.4609-2.7812-9.4297-1.6992-11.871-1.1016-1.2188-7.5195-3.5898-15.641-7.0312-20.301 1-1.5312 3.0898-5.3008 1.0391-7.3594-1.5117-1.5117-3.5195-1.1602-4.9688-0.48828-0.17969-0.51172-0.46875-1.0508-0.94141-1.4883-0.625-0.58594-1.4453-0.86328-2.3867-0.82422-1.8008 0.089844-2.8594 1.1797-3.3984 2.2617-1.0586-0.51172-2.6016-0.69922-4.4297 0.30859-0.76172 0.42969-1.25 1.1016-1.4414 1.9297-0.42187 1.9414 0.92969 4.4219 1.6914 5.6094-0.41016 0.46875-0.62891 0.80078-0.67188 0.85156-0.050782 0.078124-0.089844 0.16016-0.10938 0.25-0.03125 0.089843-0.10938 0.37891-0.23828 0.82812-1.5586 0.42188-5.9102 1.8086-7.6602 4.4219-0.19141 0.28125-0.21094 0.64844-0.058593 0.94922 0.14844 0.30859 0.44922 0.51172 0.78906 0.53125l5.25 0.37109c-2 7.9414-4.8516 20.93-4.8516 30.609 0 10.039 5.4414 21.969 30.031 24.551 0.44141 1.6797 1.8711 5.7695 5.3984 6.4102v8.1914h-8.9805c-0.53125 0-0.96094 0.42969-0.96094 0.96094 0.003906 0.52344 0.44141 0.96484 0.97266 0.96484h13.941c0.53125 0 0.96094-0.42969 0.96094-0.96094s-0.42969-0.96094-0.96094-0.96094h-3.0391l-0.003907-8.1797c3.4883-0.62109 4.6484-4.5391 4.9883-6.2109 4.7109-0.67969 8.7188-2.6289 11.961-5.8281 8.3086-8.1992 8.8711-21.789 8.8984-24.219 0.58984-0.76172 1.9883-2.8398 1.6797-5.3516-0.28516-2.1992-1.668-4.1875-2.3867-5.0977zm-51.039-18.703c0-1.9688 1.1914-3.5195 2.7188-3.5195 1.5312 0 2.7188 1.5391 2.7188 3.5195 0 1.9688-1.1914 3.5195-2.7188 3.5195-1.5312 0.003907-2.7188-1.5469-2.7188-3.5195zm40.66 36.191c-1.5 1.7695-4.5898 2.0508-6.3281 2.0586 0.10156 1.1289 0.019532 2.8203-0.96094 4.2383-0.96094 1.3906-2.5312 2.1992-4.6797 2.4102-3.6406 0.35156-6.0898-0.71094-7.6094-1.7891-0.078125 0.73828-0.30859 1.5312-0.78906 2.2383-0.87109 1.2812-2.3203 2.0117-4.3281 2.1602-0.10156 0.011718-0.19141 0.011718-0.28906 0.011718-6.1914 0-11.859-15.379-12.5-17.16-0.17969-0.5 0.078125-1.0508 0.57812-1.2188 0.5-0.17969 1.0508 0.078125 1.2188 0.57812 2.25 6.2891 7.1797 16.191 10.828 15.891 1.3906-0.10938 2.3594-0.55859 2.8789-1.3203 0.64063-0.94922 0.53906-2.2188 0.42188-2.8984-0.070313-0.050781-0.12891-0.12109-0.17969-0.19922l-3.4414-5.1211c-0.28906-0.44141-0.17969-1.0312 0.26172-1.3281 0.44141-0.28906 1.0312-0.17969 1.3281 0.26172l3.1719 4.7305c0.19141 0.070313 0.35938 0.21094 0.46875 0.39062 0.078126 0.12891 2.2109 3.3984 7.7617 2.8711 1.5508-0.14844 2.6484-0.67969 3.2812-1.5781 0.85156-1.2305 0.67969-2.8906 0.55859-3.5781l-9.7383-6.6992c-0.42969-0.30078-0.53906-0.89844-0.25-1.3281 0.30078-0.42969 0.89844-0.53906 1.3281-0.25l9.8398 6.7695c1.4102 0.070313 4.5586-0.050781 5.6719-1.3711 0.39844-0.46875 0.48828-1.1016 0.28906-1.9102-0.46875-1.3594-8.2695-5.3789-15.219-8.3281-0.48828-0.21094-0.71875-0.76953-0.51172-1.2617 0.21094-0.48828 0.76953-0.71094 1.2617-0.51172 4.6797 1.9805 15.629 6.8789 16.328 9.6211 0.47656 1.793-0.09375 2.9609-0.65234 3.6211z"/>
</svg>
